<svg preserveAspectRatio="none" overflow="visible" style="display: block;" width="89.375" height="89.375" viewBox="0 0 89.375 89.375" fill="none" xmlns="http://www.w3.org/2000/svg">
<g id="Group 134">
<path id="Vector" d="M39.2429 67.5794C38.7304 67.5808 38.316 67.9952 38.3181 68.5077C38.3201 69.0203 38.735 69.4351 39.2475 69.4337L50.0166 69.4225C50.272 69.4227 50.5029 69.3179 50.6707 69.15C50.8386 68.9822 50.9416 68.7496 50.9432 68.4924C50.9412 67.9798 50.5263 67.565 50.0138 67.5664L39.2429 67.5794Z" fill="#738CBF" stroke="white" stroke-width="0.5"/>
<path id="Vector_2" d="M52.6075 8.23347L50.1847 8.23728C50.1075 7.7964 49.8973 7.39044 49.5752 7.06485C49.1551 6.64476 48.597 6.41177 48.0022 6.41138L41.3406 6.41446L41.3371 6.41446C40.333 6.41736 39.4832 7.0956 39.2144 8.0121L37.1292 8.01436C36.6166 8.01581 36.2023 8.43017 36.2043 8.94273C36.2064 9.45529 36.6212 9.87013 37.1338 9.86867L39.1246 9.86635L39.1242 12.2717L37.1247 12.2758C36.6121 12.2772 36.1978 12.6916 36.1998 13.2041C36.2019 13.7167 36.6167 14.1315 37.1293 14.1301L39.1201 14.1278L39.1198 16.5331L37.1237 16.5337C36.6112 16.5352 36.1968 16.9495 36.1989 17.4621C36.2009 17.9746 36.6157 18.3895 37.1283 18.388L39.21 18.3857C39.3923 19.0086 39.8404 19.5162 40.4249 19.7825L40.4121 36.9206C35.7782 37.0981 32.0594 40.9254 32.0554 45.6029C32.0533 48.017 32.6647 49.4711 33.1552 50.64C33.453 51.3504 33.6878 51.9103 33.6881 52.4981C33.687 53.49 32.8164 54.6196 31.8078 55.9293C30.6804 57.3928 29.2767 59.2166 28.5434 61.5918C27.0208 66.5241 27.6759 71.2602 30.3846 74.9303C33.3644 78.9626 38.4194 81.1818 44.6208 81.1766C49.9739 81.1728 54.4738 79.5154 57.5249 76.4643C58.0109 75.9783 58.4585 75.4572 58.8693 74.9029C61.5769 71.2326 62.2369 66.4976 60.7244 61.572C59.9936 59.1977 58.593 57.3775 57.4691 55.9144C56.4624 54.607 55.5941 53.4764 55.5935 52.4828C55.5932 51.895 55.8308 51.3354 56.1312 50.6253C56.6238 49.457 57.237 48.0036 57.2391 45.5895C57.2412 43.2769 56.3355 41.0949 54.6919 39.4513C53.1288 37.8882 51.0816 36.9949 48.8966 36.9113L48.9007 31.9921C48.9007 31.9851 48.9024 31.9799 48.9024 31.9729C48.9024 31.9659 48.9006 31.9606 48.9024 31.9554L48.9127 19.7765C49.1541 19.6682 49.3761 19.5162 49.5685 19.3238C49.836 19.0563 50.0265 18.7328 50.1277 18.3795L52.2147 18.3755C52.4701 18.3756 52.7009 18.2708 52.8688 18.1029C53.0366 17.9351 53.1397 17.7025 53.1413 17.4453C53.1393 16.9328 52.7244 16.5179 52.2119 16.5194L50.2193 16.5235L50.2214 14.1163L52.2209 14.1158C52.4763 14.1159 52.7072 14.0111 52.875 13.8432C53.0429 13.6754 53.146 13.4428 53.1476 13.1856C53.1455 12.6731 52.7307 12.2582 52.2181 12.2597L50.2238 12.262L50.2243 10.0875L52.6157 10.0837C52.8711 10.0838 53.102 9.97902 53.2698 9.81116C53.4377 9.64331 53.5407 9.41072 53.5423 9.15355C53.535 8.64623 53.1185 8.23314 52.6076 8.23284L52.6075 8.23347ZM47.0364 39.3704L47.0321 43.9781L42.2599 43.9823L42.2642 39.3746L47.0364 39.3704ZM42.2557 51.9823L42.259 45.8386L47.0313 45.8344L47.0261 51.9764C46.2825 51.6488 45.4759 51.4751 44.6379 51.4764C43.7913 51.4759 42.985 51.6591 42.2557 51.9823ZM47.5087 54.5149C48.2736 55.2798 48.6941 56.2982 48.693 57.3811C48.6908 59.6202 46.8708 61.4402 44.6334 61.4407C43.5505 61.4418 42.5321 61.0213 41.7672 60.2564C41.0023 59.4915 40.5819 58.4732 40.583 57.3903C40.5841 56.2725 41.0383 55.2581 41.7726 54.5238C42.5069 53.7896 43.523 53.3335 44.6426 53.3307C45.7272 53.3313 46.7438 53.75 47.5087 54.5149ZM53.3784 40.7685C54.672 42.062 55.3832 43.7733 55.3826 45.5909C55.3803 47.6306 54.8719 48.8391 54.4212 49.9059C54.0701 50.7367 53.7399 51.522 53.7388 52.4858C53.738 54.111 54.7866 55.4744 55.9981 57.0495C57.0853 58.4619 58.3178 60.065 58.9505 62.1208C60.2861 66.4705 59.7271 70.6216 57.376 73.8053C57.0247 74.2826 56.6366 74.7302 56.217 75.1498C53.5141 77.8528 49.467 79.3233 44.6178 79.3239C39.0216 79.3294 34.4965 77.3779 31.8756 73.8303C29.5243 70.6469 28.969 66.497 30.3134 62.1423C30.9472 60.0837 32.183 58.4802 33.2738 57.0639C34.4869 55.4867 35.5357 54.1263 35.5383 52.5029C35.5377 51.5408 35.2084 50.7569 34.8598 49.9257C34.4113 48.8583 33.9033 47.6509 33.9056 45.6112C33.907 41.9551 36.7933 38.9603 40.4041 38.7802L40.3934 53.277C39.3601 54.3418 38.7225 55.7916 38.7234 57.387C38.7226 58.9667 39.3358 60.4505 40.4525 61.5673C41.5693 62.684 43.0531 63.2971 44.6328 63.2963C46.2614 63.2956 47.7392 62.6334 48.8092 61.5634C49.8792 60.4934 50.5431 59.0139 50.5439 57.3852C50.5447 55.837 49.9526 54.3777 48.8761 53.2698L48.8818 44.9463C48.8817 44.9324 48.8835 44.9201 48.8835 44.9061C48.8835 44.8921 48.8835 44.8816 48.8817 44.8694L48.8869 38.7729C50.5838 38.8543 52.1654 39.5554 53.3784 40.7685ZM47.0387 37.5163L42.2665 37.5204L42.2708 32.9127L47.0447 32.9102L47.0387 37.5163ZM47.0437 31.0524L42.2697 31.0548L42.2723 26.4488L47.0462 26.4429L47.0437 31.0524ZM47.0487 24.5885L42.2747 24.5945L42.279 19.9867L47.0529 19.9808L47.0487 24.5885ZM48.3635 8.62623L48.3565 17.4587L48.3549 17.7614C48.3568 17.8891 48.2886 17.9748 48.2484 18.015C48.2082 18.0552 48.1207 18.1216 47.9895 18.1233L41.3962 18.1316C41.3804 18.1299 41.363 18.1299 41.3472 18.1281C41.3367 18.1281 41.328 18.1298 41.3175 18.1298C41.125 18.1227 40.9675 17.9617 40.9674 17.7728L40.9672 17.4614L40.9727 8.94204L40.9725 8.63765C40.9724 8.53968 41.0144 8.44875 41.0808 8.38231C41.1473 8.31587 41.2382 8.27394 41.3379 8.27225L47.9994 8.26917C48.1289 8.26925 48.2164 8.33578 48.2549 8.37428C48.2987 8.41454 48.3652 8.49853 48.3635 8.62623Z" fill="#738CBF" stroke="white" stroke-width="0.5"/>
</g>
</svg>
