<svg xmlns="http://www.w3.org/2000/svg" fill="none" viewBox="0 0 87.89 26.799"><path fill="#05051e" d="M18.093.01v4.138h-1.132V2.495l.02-1.333h-.01l-.912 2.986h-1.032l-.891-2.986h-.02l.02 1.333v1.653h-1.132V.01h1.803l.561 1.964.21.821h.01l.211-.821L16.36.01zm2.374 4.127V0h3.336v.962h-2.054v.671h1.643v.892h-1.643v.661h2.134v.962h-3.416zm9.708 0-1.052-1.642c.15-.051.29-.111.401-.201.27-.23.41-.561.41-1.002 0-.39-.14-.711-.42-.941C29.233.12 28.832 0 28.322 0h-2.114v4.137h1.252V2.705h.521l.801 1.432zM27.45.942h.661c.18 0 .311.03.401.11.09.07.13.19.13.341 0 .15-.04.27-.13.34s-.221.1-.401.1h-.661zm7.754 3.246h1.443l-1.423-2.475L36.546.05h-1.382l-1.262 1.693V.05h-1.283v4.138h1.283V3.076l.42-.551zm4.739-1.002h1.963v.962H38.66V.01h1.283zm3.666.951V0h3.336v.962h-2.053v.671h1.643v.892h-1.643v.661h2.134v.962h-3.417z"/><path fill="#0328d1" d="M9.367 26.739 0 17.372h9.367z"/><path fill="#05051e" d="M69.867 7.774v6.512h-.491V7.774zm7.444 0v6.512h-.612l-3.456-5.109-.481-.842.03.792v5.159h-.47V7.774h.621l3.446 5.099.491.852-.02-.791v-5.16h.461zm10.579 6.512h-.521l-.822-2.044h-3.105l-.822 2.044h-.521l2.605-6.512h.581zm-4.268-2.494h2.755l-1.382-3.537zM69.366 23.423v-6.512h2.294c.722 0 1.252.15 1.603.451.351.3.521.721.521 1.282 0 .371-.1.691-.31.962-.201.27-.501.441-.892.521.421.08.751.25 1.002.531.25.28.37.621.37 1.032 0 .541-.2.971-.591 1.282q-.585.463-1.713.461h-2.294zm.501-3.507h1.813c1.062 0 1.593-.42 1.593-1.272s-.531-1.272-1.593-1.272h-1.813zm0 3.056h1.903q.842 0 1.263-.331.42-.33.421-.961c0-.421-.141-.752-.421-.972q-.42-.331-1.263-.331h-1.903v2.605zm8.716-6.161c.621 0 1.152.14 1.603.41.451.271.791.662 1.032 1.162.24.501.37 1.092.37 1.784 0 .691-.12 1.282-.37 1.783a2.77 2.77 0 0 1-1.032 1.162c-.441.281-.982.411-1.603.411s-1.142-.14-1.593-.411a2.67 2.67 0 0 1-1.042-1.162c-.24-.501-.361-1.092-.361-1.783 0-.692.121-1.283.361-1.784a2.74 2.74 0 0 1 1.042-1.162c.451-.28.982-.41 1.593-.41m0 .461c-.511 0-.942.12-1.323.35-.37.23-.661.571-.861 1.002-.201.431-.301.952-.301 1.553s.1 1.112.301 1.553.491.771.861 1.001c.371.231.812.351 1.323.351s.952-.12 1.322-.351.651-.571.862-1.001c.21-.431.31-.952.31-1.553s-.1-1.112-.31-1.553c-.211-.441-.491-.772-.862-1.002-.37-.23-.811-.35-1.322-.35m9.116 6.151h-.571l-1.983-2.936-2.014 2.936h-.581l2.324-3.346-2.134-3.166h.592l1.843 2.755 1.873-2.755h.561l-2.174 3.156 2.254 3.356zM22.08 12.693l-3.146-4.839h-5.88 5.88zm15.198 6.412h7.814v-3.587h-7.814v-3.847h9.828V7.854H32.339v18.945h15.137v-3.817H37.278zM61.311 7.854v9.558l.111 3.506h-.02l-1.443-2.815-5.881-10.249h-5.49v18.945h4.368v-9.557l-.11-3.507h.02l1.443 2.815 5.88 10.249h5.49V7.854z"/><path fill="#05051e" d="m22.08 12.693-3.146-4.849h-5.88l6.161 9.478-.07.11-6.091 9.367h5.88l5.681-8.736c.29-.451.29-1.022 0-1.473zm3.146 14.106h5.88l-5.189-7.985-2.935 4.518zm0-18.945-2.244 3.467 2.935 4.528 5.189-7.995z"/></svg>
