<svg preserveAspectRatio="none" overflow="visible" style="display: block;" width="85" height="55.224" viewBox="0 0 85 55.224" fill="none" xmlns="http://www.w3.org/2000/svg">
<path id="Vector" d="M24.1904 2.39648C28.053 -0.688613 33.544 -0.507995 37.2305 2.83789V2.83887C38.6621 4.16945 40.5138 4.89258 42.4502 4.89258C43.9949 4.89258 45.4879 4.42862 46.7783 3.56641L46.7803 3.56543L49.0303 2.02539C53.2737 -0.80942 58.9574 -0.0567654 62.2637 3.77051H62.2646L63.4521 5.13867V5.13965C65.0548 6.9948 65.9375 9.34477 65.9375 11.7822V26.3164L66.0898 26.3535C72.0749 27.8011 76.7643 29.7164 79.9521 31.9492C83.1412 34.1829 84.7997 36.7126 84.7998 39.3906C84.7998 41.5346 83.674 43.5842 81.5771 45.4619C79.4799 47.3399 76.4267 49.0311 72.6172 50.4502C64.9995 53.2879 54.3996 55.0244 42.5 55.0244C30.6003 55.0244 20.0005 53.2884 12.3828 50.4512C8.57345 49.0323 5.52004 47.3419 3.42285 45.4639C1.32605 43.586 0.200195 41.5355 0.200195 39.3906C0.200333 36.8712 1.70213 34.4623 4.58887 32.3047C7.47479 30.1477 11.7202 28.2624 17.1387 26.792L17.2871 26.752V12.7559C17.2871 9.65294 18.6791 6.76513 21.0947 4.83887L21.0957 4.83984L24.1895 2.39746L24.1904 2.39648ZM65.9365 29.4658C65.9365 30.936 65.1879 32.2532 63.8467 33.4111C62.5035 34.5707 60.5792 35.5572 58.2705 36.3564C53.6542 37.9545 47.5483 38.7871 41.6221 38.7871C35.6875 38.7871 29.5758 37.9554 24.9551 36.3574C22.644 35.5582 20.7185 34.5708 19.374 33.4111C18.0315 32.2531 17.2822 30.9361 17.2822 29.4658V29.1514L17.0273 29.2236C12.563 30.4917 8.94943 32.0693 6.44727 33.8008C3.95431 35.5259 2.51859 37.4369 2.51855 39.3799C2.51855 41.0504 3.57218 42.7128 5.46289 44.2549C7.35769 45.8003 10.1232 47.2505 13.6211 48.498C20.6188 50.9938 30.587 52.6903 42.498 52.6904L42.499 52.6914V52.6904L42.5 52.6914V52.6904C54.4112 52.6903 64.3795 50.9965 71.376 48.502C74.8734 47.255 77.6378 45.8048 79.5312 44.2588C81.4206 42.7161 82.4723 41.0529 82.4697 39.3799L82.4648 39.1865C82.3655 37.1871 80.7342 35.22 78.0098 33.4619C75.1847 31.6389 71.1288 30.0024 66.1855 28.7529L65.9365 28.6904V29.4658ZM63.3018 21.8643C61.1589 23.4694 57.8742 24.7064 54.0469 25.541C50.2239 26.3747 45.8776 26.8037 41.627 26.8037C37.3677 26.8037 33.0162 26.3742 29.1895 25.54C25.3585 24.705 22.0711 23.4678 19.9248 21.8643L19.6055 21.626V29.4795C19.6055 30.2857 20.1891 31.1178 21.1924 31.8984C22.2048 32.6861 23.6865 33.4557 25.5811 34.1318C29.373 35.485 34.8524 36.4766 41.627 36.4766C48.3982 36.4765 53.8701 35.485 57.6562 34.1318C59.548 33.4557 61.0276 32.6862 62.0381 31.8984C63.0394 31.1177 63.6211 30.2855 63.6211 29.4795V21.625L63.3018 21.8643ZM30.4473 2.53418C28.7465 2.53418 27.0452 3.09399 25.6309 4.21973L22.5371 6.66211L22.5361 6.66309C20.6792 8.14678 19.6055 10.3681 19.6055 12.7588V12.958H19.6113V17.4883C19.6116 18.2944 20.1952 19.1257 21.1982 19.9062C22.2107 20.6941 23.6929 21.4644 25.5879 22.1406C29.3798 23.4937 34.8586 24.4844 41.6328 24.4844C48.4044 24.4844 53.8769 23.4929 57.6631 22.1396C59.5551 21.4634 61.0345 20.6941 62.0449 19.9062C63.046 19.1256 63.6277 18.2941 63.6279 17.4883V11.7881C63.6279 9.91178 62.9465 8.09381 61.7168 6.67187H61.7158L60.5273 5.30176H60.5264C57.9756 2.35037 53.5969 1.78503 50.3438 3.95703L50.3428 3.95898L48.0908 5.49707C46.4041 6.63098 44.4649 7.22356 42.457 7.22363C39.9347 7.22363 37.5255 6.27286 35.666 4.56152L35.665 4.56055L35.3828 4.31641C33.9498 3.13444 32.1988 2.53422 30.4473 2.53418Z" fill="#947AA6" stroke="#F2EDF5" stroke-width="0.4"/>
</svg>
